<svg version="1.1" id="Layer_1" xmlns="http://www.w3.org/2000/svg" xmlns:xlink="http://www.w3.org/1999/xlink" x="0px" y="0px"
	 width="100%" viewBox="0 0 1024 1024" enable-background="new 0 0 1024 1024" xml:space="preserve">
<path fill="#000000" opacity="1.000000" stroke="none" 
	d="
M321.317566,592.399292 
	C322.398193,586.822449 321.293640,582.412292 318.257660,577.905579 
	C307.380035,561.758301 299.175110,544.340149 295.366638,525.101379 
	C292.784729,512.058777 292.834869,498.984863 295.601685,485.953339 
	C295.793365,485.050598 295.595795,483.877014 297.624786,483.402771 
	C300.683472,493.451324 303.064972,503.853485 308.687439,513.105957 
	C308.687439,509.020081 308.902649,504.920807 308.649658,500.850616 
	C307.630768,484.458313 311.664398,469.080414 318.304169,454.363403 
	C328.267822,432.278961 340.494873,411.480103 355.146179,392.145447 
	C355.743011,391.357819 356.432983,390.632233 357.147156,389.948334 
	C357.321808,389.781097 357.763885,389.893158 358.564819,389.852112 
	C359.974915,400.397217 361.391083,410.988037 362.807281,421.578827 
	C363.427856,409.425049 365.245178,397.470520 366.666901,385.471558 
	C367.328522,379.887817 368.950806,374.997101 372.580383,370.474731 
	C382.732269,357.825745 393.946838,346.244995 406.089264,335.534454 
	C407.540405,334.254456 408.941498,332.733459 411.672028,332.615143 
	C411.290680,339.085327 409.224396,345.280396 409.542328,351.766937 
	C411.860992,351.703278 411.856384,349.823364 412.432556,348.645752 
	C414.919617,343.562439 417.272675,338.413574 419.671143,333.286987 
	C423.642303,324.798889 429.442474,318.255676 437.502136,313.039032 
	C460.410889,298.211334 484.599365,286.722290 511.709137,282.311462 
	C524.682861,280.200592 522.710205,280.439667 521.323547,291.016388 
	C518.641357,311.474518 512.152344,330.851959 504.726898,349.958954 
	C502.497772,355.694885 499.460693,361.138550 497.506683,366.955566 
	C491.800537,383.942535 479.092102,394.103424 464.148407,402.268860 
	C460.943909,404.019775 457.843170,405.960571 454.812683,408.146606 
	C463.730774,406.699188 471.730957,402.281738 481.477478,399.074646 
	C479.379303,405.119385 477.802704,409.934021 476.042633,414.680603 
	C471.007202,428.259888 465.686707,441.719543 459.552917,454.855255 
	C452.038971,470.946533 439.799103,482.690552 425.418884,492.507690 
	C420.776978,495.676605 416.021454,498.679047 411.515625,502.146423 
	C426.325775,498.979584 439.324738,491.601776 452.666443,483.853882 
	C453.322876,487.954803 451.940552,490.830078 450.883057,493.716370 
	C443.679688,513.377563 430.465637,528.576782 415.047272,542.211182 
	C396.863068,558.291260 375.877045,569.830200 353.899139,579.553101 
	C347.636139,582.323792 344.736145,585.967346 344.426666,592.381897 
	C344.323029,594.529663 344.015381,596.667480 343.781860,599.000793 
	C346.441772,600.874939 349.477264,600.731262 352.379791,600.438171 
	C356.003418,600.072327 357.184082,601.633911 357.093353,604.999268 
	C356.976624,609.328125 357.025421,613.662781 357.072052,617.994202 
	C357.103577,620.923767 355.774231,622.173218 352.817261,622.156860 
	C338.989288,622.080200 325.160767,622.082397 311.332489,622.097412 
	C308.414703,622.100525 307.008331,620.761108 307.091949,617.850891 
	C307.230621,613.025269 307.390869,608.200195 307.498383,603.373840 
	C307.539001,601.551636 308.367859,600.585266 310.204590,600.528809 
	C310.869812,600.508362 311.535492,600.497437 312.201019,600.493835 
	C320.272827,600.449646 320.272827,600.450256 321.317566,592.399292 
M348.328735,537.975647 
	C359.535065,494.029877 377.787109,453.076996 401.319855,414.346466 
	C398.650238,415.437195 397.309601,417.573456 395.887451,419.570587 
	C358.272095,472.393311 335.121490,530.862061 327.421509,595.336609 
	C327.137726,597.712708 326.364929,600.801819 330.497375,600.568909 
	C333.630737,600.392395 337.337097,602.029541 337.981201,596.158325 
	C340.101990,576.827148 342.831238,557.561951 348.328735,537.975647 
z"/>
<path fill="#000000" opacity="1.000000" stroke="none" 
	d="
M617.050903,339.733582 
	C666.196777,354.150299 704.505920,381.750366 725.610229,428.985596 
	C745.187744,472.803680 743.261230,516.288513 718.837036,558.301819 
	C708.248047,576.516357 693.748108,590.935059 677.084839,603.422058 
	C675.018921,604.970215 673.453430,606.679443 672.424927,609.087158 
	C653.820190,652.638672 621.124878,681.637878 578.243164,700.064026 
	C577.093811,700.557861 575.873718,701.411621 574.431519,700.580017 
	C573.467407,698.937622 574.748840,697.761841 575.408997,696.534912 
	C584.500549,679.636841 588.788025,661.477966 589.662720,642.423523 
	C589.946350,636.246338 589.563965,635.997253 583.306335,636.322266 
	C534.073181,638.879944 490.813385,623.809753 453.404053,591.899841 
	C441.946716,582.126770 432.147552,570.806091 423.835876,558.181580 
	C421.421082,554.513733 421.219482,552.482361 424.861908,549.139771 
	C436.139496,538.790405 447.323792,528.232300 454.850494,514.567383 
	C455.368286,513.627258 455.700592,512.316162 457.240692,512.217957 
	C458.748108,513.493530 457.786652,514.975525 457.392792,516.273010 
	C455.020813,524.087280 452.683960,531.998047 448.400208,538.967773 
	C445.799744,543.198792 446.672180,546.085449 449.300140,549.700195 
	C471.052490,579.620728 500.565918,597.714661 536.049744,606.491699 
	C554.975891,611.173157 574.200806,612.156677 593.544189,609.014221 
	C601.133118,607.781311 601.200806,608.059265 603.518921,615.577759 
	C607.286011,627.795837 606.877930,640.217407 605.919983,652.706299 
	C605.836914,653.789124 604.976746,654.924561 606.569702,656.395447 
	C608.626587,654.704407 610.825623,653.026306 612.880371,651.186951 
	C631.258850,634.735474 644.716919,614.965820 652.566284,591.539856 
	C653.663574,588.264893 656.049561,586.842407 658.492859,585.176575 
	C683.363586,568.219116 701.285889,545.784607 708.578308,516.448059 
	C720.947937,466.686188 704.998352,425.499268 666.153870,393.667725 
	C629.176941,363.366516 586.287476,354.117950 539.381592,363.708710 
	C534.318115,364.744019 529.237976,365.623291 524.367676,367.395935 
	C519.556213,369.147217 514.757019,370.932312 510.114441,372.642944 
	C508.426880,371.113342 509.452301,369.855804 510.011658,368.785645 
	C513.885742,361.373871 516.570923,353.478638 519.412048,345.656891 
	C520.489197,342.691467 522.230530,341.012634 525.265320,340.203644 
	C546.737732,334.479767 568.486023,332.690765 590.608765,335.045624 
	C599.410522,335.982605 608.025696,337.776428 617.050903,339.733582 
z"/>
<path fill="#000000" opacity="1.000000" stroke="none" 
	d="
M360.334625,655.653564 
	C361.991699,659.841187 367.133057,662.510742 366.267639,666.541748 
	C365.510986,670.066223 361.776581,672.955200 359.345856,676.115784 
	C349.942383,688.343079 342.363647,701.591431 336.865356,716.024170 
	C336.242432,717.659302 336.067230,719.659363 334.153595,720.634888 
	C332.076111,719.697449 332.741119,717.792847 332.736023,716.295105 
	C332.693604,703.796631 332.809998,691.297302 332.721832,678.799377 
	C332.702972,676.125854 333.728241,674.575195 335.909698,673.147644 
	C339.773468,670.619141 340.810028,666.897583 338.920471,662.685059 
	C337.570587,659.675659 334.919617,658.307861 331.634399,658.333130 
	C328.281677,658.358948 325.747711,660.020935 324.646637,663.064026 
	C323.512665,666.197998 323.665955,669.974182 326.597473,671.731140 
	C331.615936,674.738770 331.321594,679.078186 331.273651,683.795410 
	C331.168610,694.126160 331.314056,704.459290 331.314026,714.791443 
	C331.314026,716.703491 331.682007,718.733154 330.450012,720.475525 
	C328.007782,720.147888 327.940369,718.184814 327.385468,716.781006 
	C320.457153,699.253540 310.741180,683.418579 298.368805,669.239563 
	C296.148865,666.695496 296.115784,664.863953 298.278229,662.388916 
	C305.401031,654.236206 309.130493,644.492798 310.701630,633.939758 
	C311.285278,630.019531 312.869324,628.577515 316.851196,628.663635 
	C326.845459,628.880005 336.848541,628.797485 346.846375,628.684753 
	C350.196472,628.646973 351.914978,629.565186 352.442688,633.299866 
	C353.544617,641.098816 356.260071,648.450256 360.334625,655.653564 
z"/>
<path fill="#000000" opacity="1.000000" stroke="none" 
	d="
M296.187286,728.643555 
	C312.430603,728.488281 328.204407,729.093384 343.968872,728.264099 
	C347.237305,728.092102 350.215393,728.929199 350.431458,732.812927 
	C350.667908,737.062744 347.473938,737.356812 344.277008,737.355530 
	C328.170990,737.349060 312.064911,737.337708 295.958954,737.366516 
	C292.674591,737.372375 289.095184,737.458130 288.942108,733.076294 
	C288.782104,728.496094 292.482513,728.666016 296.187286,728.643555 
z"/>
</svg>